<svg id="Unofficial_JavaScript_logo_2" xmlns="http://www.w3.org/2000/svg" width="235.197" height="234.532" viewBox="0 0 235.197 234.532">
  <rect id="Rectangle_489" data-name="Rectangle 489" width="235.197" height="234.532" transform="translate(0)" fill="#fff"/>
  <path id="Path_770" data-name="Path 770" d="M261.776,362.773c4.729,7.722,10.882,13.4,21.764,13.4,9.142,0,14.982-4.569,14.982-10.882,0-7.565-6-10.245-16.062-14.646l-5.516-2.367c-15.921-6.783-26.5-15.28-26.5-33.242,0-16.547,12.608-29.143,32.311-29.143,14.028,0,24.112,4.882,31.379,17.665l-17.18,11.031c-3.783-6.783-7.863-9.455-14.2-9.455-6.462,0-10.558,4.1-10.558,9.455,0,6.619,4.1,9.3,13.565,13.4l5.516,2.363C310.027,338.385,320.61,346.58,320.61,365c0,19.864-15.6,30.746-36.559,30.746-20.49,0-33.727-9.764-40.2-22.562Zm-77.937,1.912c3.466,6.149,6.619,11.348,14.2,11.348,7.249,0,11.821-2.836,11.821-13.864V287.15h22.062v75.317c0,22.845-13.394,33.243-32.944,33.243-17.665,0-27.895-9.142-33.1-20.152Z" transform="translate(-103.855 -179.346)" fill="rgba(0,128,128,100)"/>
</svg>
